<mxfile host="65bd71144e">
    <diagram id="OnEOJ7CuTvSk_V1b2IrQ" name="Page-1">
        <mxGraphModel dx="1242" dy="795" grid="1" gridSize="10" guides="1" tooltips="1" connect="1" arrows="1" fold="1" page="1" pageScale="1" pageWidth="827" pageHeight="1169" math="0" shadow="0">
            <root>
                <mxCell id="0"/>
                <mxCell id="1" parent="0"/>
                <mxCell id="2" value="&lt;font style=&quot;font-size: 20px&quot;&gt;Connexion&lt;/font&gt;" style="rounded=1;whiteSpace=wrap;html=1;" vertex="1" parent="1">
                    <mxGeometry x="700" y="110" width="260" height="60" as="geometry"/>
                </mxCell>
                <mxCell id="3" value="&lt;font style=&quot;font-size: 24px&quot;&gt;Arboresence du site mediathèque&lt;/font&gt;" style="rounded=0;whiteSpace=wrap;html=1;fontSize=20;fontStyle=1" vertex="1" parent="1">
                    <mxGeometry x="380" y="20" width="1030" height="50" as="geometry"/>
                </mxCell>
                <mxCell id="4" value="Services" style="rounded=1;whiteSpace=wrap;html=1;fontSize=20;" vertex="1" parent="1">
                    <mxGeometry x="1370" y="240" width="150" height="60" as="geometry"/>
                </mxCell>
                <mxCell id="5" value="A propos" style="rounded=1;whiteSpace=wrap;html=1;fontSize=20;" vertex="1" parent="1">
                    <mxGeometry x="1140" y="240" width="150" height="60" as="geometry"/>
                </mxCell>
                <mxCell id="6" value="Mon profil" style="rounded=1;whiteSpace=wrap;html=1;fontSize=20;" vertex="1" parent="1">
                    <mxGeometry x="1580" y="235" width="140" height="70" as="geometry"/>
                </mxCell>
                <mxCell id="7" value="Documents" style="rounded=1;whiteSpace=wrap;html=1;fontSize=20;" vertex="1" parent="1">
                    <mxGeometry x="640" y="250" width="170" height="60" as="geometry"/>
                </mxCell>
                <mxCell id="8" value="Accueil" style="rounded=1;whiteSpace=wrap;html=1;fontSize=20;" vertex="1" parent="1">
                    <mxGeometry x="440" y="250" width="100" height="60" as="geometry"/>
                </mxCell>
                <mxCell id="10" value="" style="endArrow=classic;html=1;rounded=0;fontSize=20;entryX=0.5;entryY=0;entryDx=0;entryDy=0;" edge="1" parent="1" target="8">
                    <mxGeometry width="50" height="50" relative="1" as="geometry">
                        <mxPoint x="900" y="170" as="sourcePoint"/>
                        <mxPoint x="360" y="250" as="targetPoint"/>
                        <Array as="points">
                            <mxPoint x="900" y="200"/>
                            <mxPoint x="490" y="200"/>
                            <mxPoint x="490" y="220"/>
                        </Array>
                    </mxGeometry>
                </mxCell>
                <mxCell id="11" value="" style="endArrow=classic;html=1;rounded=0;fontSize=20;entryX=0.427;entryY=-0.006;entryDx=0;entryDy=0;entryPerimeter=0;" edge="1" parent="1" target="7">
                    <mxGeometry width="50" height="50" relative="1" as="geometry">
                        <mxPoint x="713" y="200" as="sourcePoint"/>
                        <mxPoint x="940" y="470" as="targetPoint"/>
                    </mxGeometry>
                </mxCell>
                <mxCell id="12" value="" style="endArrow=classic;html=1;rounded=0;fontSize=20;" edge="1" parent="1">
                    <mxGeometry width="50" height="50" relative="1" as="geometry">
                        <mxPoint x="1210" y="200" as="sourcePoint"/>
                        <mxPoint x="1210" y="240" as="targetPoint"/>
                    </mxGeometry>
                </mxCell>
                <mxCell id="13" value="" style="endArrow=classic;html=1;rounded=0;fontSize=20;entryX=0.5;entryY=0;entryDx=0;entryDy=0;" edge="1" parent="1" target="6">
                    <mxGeometry width="50" height="50" relative="1" as="geometry">
                        <mxPoint x="1650" y="200" as="sourcePoint"/>
                        <mxPoint x="1580" y="250" as="targetPoint"/>
                    </mxGeometry>
                </mxCell>
                <mxCell id="14" value="&lt;font style=&quot;font-size: 20px&quot;&gt;Histoire&lt;/font&gt;" style="rounded=1;whiteSpace=wrap;html=1;" vertex="1" parent="1">
                    <mxGeometry x="1090" y="340" width="120" height="60" as="geometry"/>
                </mxCell>
                <mxCell id="15" value="&lt;font style=&quot;font-size: 20px&quot;&gt;Notre équipe&lt;/font&gt;" style="rounded=1;whiteSpace=wrap;html=1;" vertex="1" parent="1">
                    <mxGeometry x="1250" y="340" width="120" height="60" as="geometry"/>
                </mxCell>
                <mxCell id="16" value="" style="endArrow=classic;html=1;rounded=0;fontSize=20;entryX=0.5;entryY=0;entryDx=0;entryDy=0;" edge="1" parent="1" target="14">
                    <mxGeometry width="50" height="50" relative="1" as="geometry">
                        <mxPoint x="1230" y="300" as="sourcePoint"/>
                        <mxPoint x="1130" y="440" as="targetPoint"/>
                    </mxGeometry>
                </mxCell>
                <mxCell id="17" value="" style="endArrow=classic;html=1;rounded=0;fontSize=20;entryX=0.5;entryY=0;entryDx=0;entryDy=0;" edge="1" parent="1" target="15">
                    <mxGeometry width="50" height="50" relative="1" as="geometry">
                        <mxPoint x="1230" y="300" as="sourcePoint"/>
                        <mxPoint x="1130" y="440" as="targetPoint"/>
                    </mxGeometry>
                </mxCell>
                <mxCell id="18" value="" style="endArrow=none;html=1;rounded=0;fontSize=20;entryX=0.141;entryY=1.028;entryDx=0;entryDy=0;entryPerimeter=0;" edge="1" parent="1" target="7">
                    <mxGeometry width="50" height="50" relative="1" as="geometry">
                        <mxPoint x="660" y="600" as="sourcePoint"/>
                        <mxPoint x="900" y="440" as="targetPoint"/>
                    </mxGeometry>
                </mxCell>
                <mxCell id="19" value="Livres" style="rounded=1;whiteSpace=wrap;html=1;fontSize=20;" vertex="1" parent="1">
                    <mxGeometry x="710" y="340" width="120" height="60" as="geometry"/>
                </mxCell>
                <mxCell id="20" value="Journaux" style="rounded=1;whiteSpace=wrap;html=1;fontSize=20;" vertex="1" parent="1">
                    <mxGeometry x="710" y="420" width="120" height="60" as="geometry"/>
                </mxCell>
                <mxCell id="21" value="Microfilms" style="rounded=1;whiteSpace=wrap;html=1;fontSize=20;" vertex="1" parent="1">
                    <mxGeometry x="710" y="500" width="120" height="60" as="geometry"/>
                </mxCell>
                <mxCell id="22" value="CD-ROM" style="rounded=1;whiteSpace=wrap;html=1;fontSize=20;" vertex="1" parent="1">
                    <mxGeometry x="710" y="580" width="120" height="60" as="geometry"/>
                </mxCell>
                <mxCell id="23" value="" style="endArrow=classic;html=1;rounded=0;fontSize=20;" edge="1" parent="1">
                    <mxGeometry width="50" height="50" relative="1" as="geometry">
                        <mxPoint x="660" y="370" as="sourcePoint"/>
                        <mxPoint x="710" y="370" as="targetPoint"/>
                    </mxGeometry>
                </mxCell>
                <mxCell id="24" value="" style="endArrow=classic;html=1;rounded=0;fontSize=20;" edge="1" parent="1">
                    <mxGeometry width="50" height="50" relative="1" as="geometry">
                        <mxPoint x="660" y="450" as="sourcePoint"/>
                        <mxPoint x="710" y="450" as="targetPoint"/>
                    </mxGeometry>
                </mxCell>
                <mxCell id="25" value="" style="endArrow=classic;html=1;rounded=0;fontSize=20;" edge="1" parent="1">
                    <mxGeometry width="50" height="50" relative="1" as="geometry">
                        <mxPoint x="660" y="530" as="sourcePoint"/>
                        <mxPoint x="710" y="530" as="targetPoint"/>
                    </mxGeometry>
                </mxCell>
                <mxCell id="26" value="" style="endArrow=classic;html=1;rounded=0;fontSize=20;" edge="1" parent="1">
                    <mxGeometry width="50" height="50" relative="1" as="geometry">
                        <mxPoint x="660" y="600" as="sourcePoint"/>
                        <mxPoint x="710" y="600" as="targetPoint"/>
                    </mxGeometry>
                </mxCell>
                <mxCell id="27" value="Evénements" style="rounded=1;whiteSpace=wrap;html=1;fontSize=20;" vertex="1" parent="1">
                    <mxGeometry x="1390" y="340" width="120" height="60" as="geometry"/>
                </mxCell>
                <mxCell id="28" value="Conférences" style="rounded=1;whiteSpace=wrap;html=1;fontSize=20;" vertex="1" parent="1">
                    <mxGeometry x="1520" y="340" width="120" height="60" as="geometry"/>
                </mxCell>
                <mxCell id="29" value="" style="endArrow=classic;html=1;rounded=0;fontSize=20;exitX=0.395;exitY=1.028;exitDx=0;exitDy=0;exitPerimeter=0;entryX=0.5;entryY=0;entryDx=0;entryDy=0;" edge="1" parent="1" source="4" target="27">
                    <mxGeometry width="50" height="50" relative="1" as="geometry">
                        <mxPoint x="1080" y="490" as="sourcePoint"/>
                        <mxPoint x="1130" y="440" as="targetPoint"/>
                    </mxGeometry>
                </mxCell>
                <mxCell id="30" value="" style="endArrow=classic;html=1;rounded=0;fontSize=20;entryX=0.4;entryY=-0.056;entryDx=0;entryDy=0;entryPerimeter=0;exitX=0.5;exitY=1;exitDx=0;exitDy=0;" edge="1" parent="1" source="4" target="28">
                    <mxGeometry width="50" height="50" relative="1" as="geometry">
                        <mxPoint x="1080" y="490" as="sourcePoint"/>
                        <mxPoint x="1130" y="440" as="targetPoint"/>
                    </mxGeometry>
                </mxCell>
                <mxCell id="31" value="" style="endArrow=none;html=1;rounded=0;fontSize=20;" edge="1" parent="1">
                    <mxGeometry width="50" height="50" relative="1" as="geometry">
                        <mxPoint x="1880" y="200" as="sourcePoint"/>
                        <mxPoint x="900" y="200" as="targetPoint"/>
                    </mxGeometry>
                </mxCell>
                <mxCell id="32" value="" style="endArrow=classic;html=1;rounded=0;fontSize=20;" edge="1" parent="1">
                    <mxGeometry width="50" height="50" relative="1" as="geometry">
                        <mxPoint x="1430" y="200" as="sourcePoint"/>
                        <mxPoint x="1430" y="240" as="targetPoint"/>
                    </mxGeometry>
                </mxCell>
                <mxCell id="34" value="&lt;font style=&quot;font-size: 20px&quot;&gt;Recherche&lt;/font&gt;" style="rounded=1;whiteSpace=wrap;html=1;fontSize=24;" vertex="1" parent="1">
                    <mxGeometry x="1770" y="240" width="120" height="60" as="geometry"/>
                </mxCell>
                <mxCell id="35" value="" style="endArrow=classic;html=1;rounded=0;fontSize=24;" edge="1" parent="1">
                    <mxGeometry width="50" height="50" relative="1" as="geometry">
                        <mxPoint x="1840" y="200" as="sourcePoint"/>
                        <mxPoint x="1840" y="240" as="targetPoint"/>
                    </mxGeometry>
                </mxCell>
                <mxCell id="37" value="" style="endArrow=classic;html=1;rounded=0;fontSize=20;entryX=0.427;entryY=-0.006;entryDx=0;entryDy=0;entryPerimeter=0;" edge="1" parent="1">
                    <mxGeometry width="50" height="50" relative="1" as="geometry">
                        <mxPoint x="930.41" y="200.36" as="sourcePoint"/>
                        <mxPoint x="929.9999999999999" y="250" as="targetPoint"/>
                    </mxGeometry>
                </mxCell>
                <mxCell id="38" value="Utilisateur" style="rounded=1;whiteSpace=wrap;html=1;fontSize=20;" vertex="1" parent="1">
                    <mxGeometry x="860" y="250" width="170" height="60" as="geometry"/>
                </mxCell>
                <mxCell id="39" value="" style="endArrow=none;html=1;rounded=0;fontSize=20;entryX=0.141;entryY=1.028;entryDx=0;entryDy=0;entryPerimeter=0;" edge="1" parent="1">
                    <mxGeometry width="50" height="50" relative="1" as="geometry">
                        <mxPoint x="910" y="370" as="sourcePoint"/>
                        <mxPoint x="910" y="309.99999999999994" as="targetPoint"/>
                    </mxGeometry>
                </mxCell>
                <mxCell id="40" value="Profil" style="rounded=1;whiteSpace=wrap;html=1;fontSize=20;" vertex="1" parent="1">
                    <mxGeometry x="950" y="340" width="120" height="60" as="geometry"/>
                </mxCell>
                <mxCell id="42" value="" style="endArrow=classic;html=1;rounded=0;fontSize=20;entryX=0;entryY=0.5;entryDx=0;entryDy=0;" edge="1" parent="1" target="40">
                    <mxGeometry width="50" height="50" relative="1" as="geometry">
                        <mxPoint x="910" y="370" as="sourcePoint"/>
                        <mxPoint x="940" y="369.5" as="targetPoint"/>
                        <Array as="points">
                            <mxPoint x="930" y="370"/>
                        </Array>
                    </mxGeometry>
                </mxCell>
            </root>
        </mxGraphModel>
    </diagram>
</mxfile>